<?xml version="1.0" encoding="UTF-8" standalone="no"?>
<svg xmlns="http://www.w3.org/2000/svg" xmlns:xlink="http://www.w3.org/1999/xlink" contentScriptType="application/ecmascript" contentStyleType="text/css" height="691px" preserveAspectRatio="none" style="width:715px;height:691px;" version="1.1" viewBox="0 0 715 691" width="715px" zoomAndPan="magnify"><defs><filter height="300%" id="f1x84nfi1yysgz" width="300%" x="-1" y="-1"><feGaussianBlur result="blurOut" stdDeviation="2.0"/><feColorMatrix in="blurOut" result="blurOut2" type="matrix" values="0 0 0 0 0 0 0 0 0 0 0 0 0 0 0 0 0 0 .4 0"/><feOffset dx="4.0" dy="4.0" in="blurOut2" result="blurOut3"/><feBlend in="SourceGraphic" in2="blurOut3" mode="normal"/></filter></defs><g><!--cluster session layer--><rect fill="#FFFFFF" filter="url(#f1x84nfi1yysgz)" height="163" rx="10" ry="10" style="stroke: #000000; stroke-width: 1.5;" width="282" x="220" y="24"/><text fill="#000000" font-family="sans-serif" font-size="14" font-weight="bold" lengthAdjust="spacingAndGlyphs" textLength="105" x="308.5" y="38.9951">session layer</text><!--cluster transport layer--><rect fill="#FFFFFF" filter="url(#f1x84nfi1yysgz)" height="269" rx="10" ry="10" style="stroke: #000000; stroke-width: 1.5;" width="352" x="185" y="211"/><text fill="#000000" font-family="sans-serif" font-size="14" font-weight="bold" lengthAdjust="spacingAndGlyphs" textLength="118" x="302" y="225.9951">transport layer</text><!--cluster platform layer--><rect fill="#FFFFFF" filter="url(#f1x84nfi1yysgz)" height="176" rx="10" ry="10" style="stroke: #000000; stroke-width: 1.5;" width="682" x="22" y="504"/><text fill="#000000" font-family="sans-serif" font-size="14" font-weight="bold" lengthAdjust="spacingAndGlyphs" textLength="110" x="308" y="518.9951">platform layer</text><!--class uxrCommunication--><rect fill="#F8F8F8" filter="url(#f1x84nfi1yysgz)" height="112.0234" id="uxrCommunication" rx="10" ry="10" style="stroke: #383838; stroke-width: 1.5;" width="249" x="236.5" y="59"/><ellipse cx="298.75" cy="75" fill="#B1B1B1" rx="11" ry="11" style="stroke: #383838; stroke-width: 1.0;"/><path d="M299.7031,71.7813 L299.7031,78.2969 L301.4219,78.2969 C301.875,78.2969 302.0156,78.3281 302.1875,78.4531 C302.4219,78.625 302.5313,78.875 302.5313,79.1563 C302.5313,79.7188 302.1719,80 301.4219,80 L296.2813,80 C295.875,80 295.6719,79.9531 295.5156,79.8281 C295.2969,79.6719 295.1563,79.4063 295.1563,79.1563 C295.1563,78.8594 295.3125,78.5781 295.5625,78.4219 C295.7188,78.3125 295.8438,78.2969 296.2813,78.2969 L298,78.2969 L298,71.7813 L296.2813,71.7813 C295.8594,71.7813 295.6719,71.75 295.5156,71.6406 C295.2969,71.4688 295.1563,71.2188 295.1563,70.9375 C295.1563,70.6563 295.3125,70.3594 295.5625,70.2031 C295.7188,70.1094 295.8438,70.0938 296.2813,70.0938 L301.4219,70.0938 C301.875,70.0938 302.0156,70.125 302.1875,70.2344 C302.4219,70.4063 302.5313,70.6719 302.5313,70.9375 C302.5313,71.2344 302.3906,71.5156 302.125,71.6719 C302,71.75 301.8125,71.7813 301.4219,71.7813 Z "/><text fill="#000000" font-family="sans-serif" font-size="12" font-style="italic" lengthAdjust="spacingAndGlyphs" textLength="116" x="319.25" y="79.1543">uxrCommunication</text><line style="stroke: #383838; stroke-width: 1.5;" x1="237.5" x2="484.5" y1="91" y2="91"/><text fill="#000000" font-family="sans-serif" font-size="11" lengthAdjust="spacingAndGlyphs" textLength="81" x="242.5" y="105.2104">void* instance</text><text fill="#000000" font-family="sans-serif" font-size="11" lengthAdjust="spacingAndGlyphs" textLength="71" x="242.5" y="118.0151">uint16_t mtu</text><line style="stroke: #383838; stroke-width: 1.5;" x1="237.5" x2="484.5" y1="124.6094" y2="124.6094"/><ellipse cx="247.5" cy="136.5117" fill="#A6A6A6" rx="3" ry="3" style="stroke: #545454; stroke-width: 1.0;"/><text fill="#000000" font-family="sans-serif" font-size="11" lengthAdjust="spacingAndGlyphs" textLength="63" x="256.5" y="138.8198">virtual bool</text><text fill="#000000" font-family="sans-serif" font-size="11" font-weight="bold" lengthAdjust="spacingAndGlyphs" textLength="107" x="323.5" y="138.8198">send_msg_func()</text><text fill="#000000" font-family="sans-serif" font-size="11" lengthAdjust="spacingAndGlyphs" textLength="20" x="434.5" y="138.8198">= 0</text><ellipse cx="247.5" cy="149.3164" fill="#A6A6A6" rx="3" ry="3" style="stroke: #545454; stroke-width: 1.0;"/><text fill="#000000" font-family="sans-serif" font-size="11" lengthAdjust="spacingAndGlyphs" textLength="63" x="256.5" y="151.6245">virtual bool</text><text fill="#000000" font-family="sans-serif" font-size="11" font-weight="bold" lengthAdjust="spacingAndGlyphs" textLength="103" x="323.5" y="151.6245">recv_msg_func()</text><text fill="#000000" font-family="sans-serif" font-size="11" lengthAdjust="spacingAndGlyphs" textLength="20" x="430.5" y="151.6245">= 0</text><ellipse cx="247.5" cy="162.1211" fill="#A6A6A6" rx="3" ry="3" style="stroke: #545454; stroke-width: 1.0;"/><text fill="#000000" font-family="sans-serif" font-size="11" lengthAdjust="spacingAndGlyphs" textLength="77" x="256.5" y="164.4292">virtual uint8_t</text><text fill="#000000" font-family="sans-serif" font-size="11" font-weight="bold" lengthAdjust="spacingAndGlyphs" textLength="118" x="337.5" y="164.4292">comm_error_func()</text><text fill="#000000" font-family="sans-serif" font-size="11" lengthAdjust="spacingAndGlyphs" textLength="20" x="459.5" y="164.4292">= 0</text><!--class uxrUDPTransport--><rect fill="#F8F8F8" filter="url(#f1x84nfi1yysgz)" height="217.6563" id="uxrUDPTransport" rx="10" ry="10" style="stroke: #383838; stroke-width: 1.5;" width="319" x="201.5" y="246"/><ellipse cx="304.25" cy="262" fill="#B1B1B1" rx="11" ry="11" style="stroke: #383838; stroke-width: 1.0;"/><path d="M305.2031,258.7813 L305.2031,265.2969 L306.9219,265.2969 C307.375,265.2969 307.5156,265.3281 307.6875,265.4531 C307.9219,265.625 308.0313,265.875 308.0313,266.1563 C308.0313,266.7188 307.6719,267 306.9219,267 L301.7813,267 C301.375,267 301.1719,266.9531 301.0156,266.8281 C300.7969,266.6719 300.6563,266.4063 300.6563,266.1563 C300.6563,265.8594 300.8125,265.5781 301.0625,265.4219 C301.2188,265.3125 301.3438,265.2969 301.7813,265.2969 L303.5,265.2969 L303.5,258.7813 L301.7813,258.7813 C301.3594,258.7813 301.1719,258.75 301.0156,258.6406 C300.7969,258.4688 300.6563,258.2188 300.6563,257.9375 C300.6563,257.6563 300.8125,257.3594 301.0625,257.2031 C301.2188,257.1094 301.3438,257.0938 301.7813,257.0938 L306.9219,257.0938 C307.375,257.0938 307.5156,257.125 307.6875,257.2344 C307.9219,257.4063 308.0313,257.6719 308.0313,257.9375 C308.0313,258.2344 307.8906,258.5156 307.625,258.6719 C307.5,258.75 307.3125,258.7813 306.9219,258.7813 Z "/><text fill="#000000" font-family="sans-serif" font-size="12" font-style="italic" lengthAdjust="spacingAndGlyphs" textLength="105" x="324.75" y="266.1543">uxrUDPTransport</text><line style="stroke: #383838; stroke-width: 1.5;" x1="202.5" x2="519.5" y1="278" y2="278"/><text fill="#000000" font-family="sans-serif" font-size="11" lengthAdjust="spacingAndGlyphs" textLength="145" x="207.5" y="292.2104">uxrCommunication comm</text><text fill="#000000" font-family="sans-serif" font-size="11" lengthAdjust="spacingAndGlyphs" textLength="147" x="207.5" y="305.0151">uxrUDPPlatform* platform</text><text fill="#000000" font-family="sans-serif" font-size="11" lengthAdjust="spacingAndGlyphs" textLength="134" x="207.5" y="317.8198">uint8_t buffer[mtu_size]</text><line style="stroke: #383838; stroke-width: 1.0;" x1="202.5" x2="519.5" y1="324.4141" y2="324.4141"/><ellipse cx="212.5" cy="336.3164" fill="#A6A6A6" rx="3" ry="3" style="stroke: #545454; stroke-width: 1.0;"/><text fill="#000000" font-family="sans-serif" font-size="11" lengthAdjust="spacingAndGlyphs" textLength="24" x="221.5" y="338.6245">bool</text><text fill="#000000" font-family="sans-serif" font-size="11" font-weight="bold" lengthAdjust="spacingAndGlyphs" textLength="134" x="249.5" y="338.6245">send_udp_message()</text><text fill="#000000" font-family="sans-serif" font-size="11" lengthAdjust="spacingAndGlyphs" textLength="47" x="387.5" y="338.6245">override</text><ellipse cx="212.5" cy="349.1211" fill="#A6A6A6" rx="3" ry="3" style="stroke: #545454; stroke-width: 1.0;"/><text fill="#000000" font-family="sans-serif" font-size="11" lengthAdjust="spacingAndGlyphs" textLength="24" x="221.5" y="351.4292">bool</text><text fill="#000000" font-family="sans-serif" font-size="11" font-weight="bold" lengthAdjust="spacingAndGlyphs" textLength="130" x="249.5" y="351.4292">recv_udp_message()</text><text fill="#000000" font-family="sans-serif" font-size="11" lengthAdjust="spacingAndGlyphs" textLength="47" x="383.5" y="351.4292">override</text><ellipse cx="212.5" cy="361.9258" fill="#A6A6A6" rx="3" ry="3" style="stroke: #545454; stroke-width: 1.0;"/><text fill="#000000" font-family="sans-serif" font-size="11" lengthAdjust="spacingAndGlyphs" textLength="24" x="221.5" y="364.2339">bool</text><text fill="#000000" font-family="sans-serif" font-size="11" font-weight="bold" lengthAdjust="spacingAndGlyphs" textLength="98" x="249.5" y="364.2339">get_udp_error()</text><text fill="#000000" font-family="sans-serif" font-size="11" lengthAdjust="spacingAndGlyphs" textLength="47" x="351.5" y="364.2339">override</text><line style="stroke: #383838; stroke-width: 1.0; stroke-dasharray: 1.0,2.0;" x1="202.5" x2="519.5" y1="370.8281" y2="370.8281"/><ellipse cx="212.5" cy="382.7305" fill="#A6A6A6" rx="3" ry="3" style="stroke: #545454; stroke-width: 1.0;"/><text fill="#000000" font-family="sans-serif" font-size="11" lengthAdjust="spacingAndGlyphs" textLength="24" x="221.5" y="385.0386">bool</text><text fill="#000000" font-family="sans-serif" font-size="11" font-weight="bold" lengthAdjust="spacingAndGlyphs" textLength="152" x="249.5" y="385.0386">uxr_init_udp_transport()</text><ellipse cx="212.5" cy="395.5352" fill="#A6A6A6" rx="3" ry="3" style="stroke: #545454; stroke-width: 1.0;"/><text fill="#000000" font-family="sans-serif" font-size="11" lengthAdjust="spacingAndGlyphs" textLength="24" x="221.5" y="397.8433">bool</text><text fill="#000000" font-family="sans-serif" font-size="11" font-weight="bold" lengthAdjust="spacingAndGlyphs" textLength="165" x="249.5" y="397.8433">uxr_close_udp_transport()</text><line style="stroke: #383838; stroke-width: 1.0; stroke-dasharray: 1.0,2.0;" x1="202.5" x2="519.5" y1="404.4375" y2="404.4375"/><rect fill="#808080" height="6" style="stroke: #595959; stroke-width: 1.0;" width="6" x="209.5" y="413.3398"/><text fill="#000000" font-family="sans-serif" font-size="11" lengthAdjust="spacingAndGlyphs" textLength="63" x="221.5" y="418.6479">virtual bool</text><text fill="#000000" font-family="sans-serif" font-size="11" font-weight="bold" lengthAdjust="spacingAndGlyphs" textLength="147" x="288.5" y="418.6479">uxr_init_udp_platform()</text><text fill="#000000" font-family="sans-serif" font-size="11" lengthAdjust="spacingAndGlyphs" textLength="20" x="439.5" y="418.6479">= 0</text><rect fill="#808080" height="6" style="stroke: #595959; stroke-width: 1.0;" width="6" x="209.5" y="426.1445"/><text fill="#000000" font-family="sans-serif" font-size="11" lengthAdjust="spacingAndGlyphs" textLength="63" x="221.5" y="431.4526">virtual bool</text><text fill="#000000" font-family="sans-serif" font-size="11" font-weight="bold" lengthAdjust="spacingAndGlyphs" textLength="160" x="288.5" y="431.4526">uxr_close_udp_platform()</text><text fill="#000000" font-family="sans-serif" font-size="11" lengthAdjust="spacingAndGlyphs" textLength="20" x="452.5" y="431.4526">= 0</text><rect fill="#808080" height="6" style="stroke: #595959; stroke-width: 1.0;" width="6" x="209.5" y="438.9492"/><text fill="#000000" font-family="sans-serif" font-size="11" lengthAdjust="spacingAndGlyphs" textLength="71" x="221.5" y="444.2573">virtual size_t</text><text fill="#000000" font-family="sans-serif" font-size="11" font-weight="bold" lengthAdjust="spacingAndGlyphs" textLength="194" x="296.5" y="444.2573">uxr_write_udp_data_platform()</text><text fill="#000000" font-family="sans-serif" font-size="11" lengthAdjust="spacingAndGlyphs" textLength="20" x="494.5" y="444.2573">= 0</text><rect fill="#808080" height="6" style="stroke: #595959; stroke-width: 1.0;" width="6" x="209.5" y="451.7539"/><text fill="#000000" font-family="sans-serif" font-size="11" lengthAdjust="spacingAndGlyphs" textLength="71" x="221.5" y="457.062">virtual size_t</text><text fill="#000000" font-family="sans-serif" font-size="11" font-weight="bold" lengthAdjust="spacingAndGlyphs" textLength="190" x="296.5" y="457.062">uxr_read_udp_data_platform()</text><text fill="#000000" font-family="sans-serif" font-size="11" lengthAdjust="spacingAndGlyphs" textLength="20" x="490.5" y="457.062">= 0</text><!--class uxrUDPPlatform <<Linux>>--><rect fill="#F8F8F8" filter="url(#f1x84nfi1yysgz)" height="124.8281" id="uxrUDPPlatform &lt;&lt;Linux&gt;&gt;" rx="10" ry="10" style="stroke: #383838; stroke-width: 1.5;" width="307" x="380.5" y="539"/><ellipse cx="443.75" cy="555" fill="#C2C2C2" rx="11" ry="11" style="stroke: #383838; stroke-width: 1.0;"/><path d="M446.0938,550.6719 L446.2656,550.75 C446.4844,550.4375 446.6875,550.3438 446.9844,550.3438 C447.2813,550.3438 447.5625,550.4844 447.7188,550.75 C447.8125,550.9063 447.8281,551.0313 447.8281,551.4688 L447.8281,552.8906 C447.8281,553.3125 447.7969,553.5 447.6875,553.6563 C447.5156,553.875 447.25,554.0156 446.9844,554.0156 C446.7656,554.0156 446.5313,553.9063 446.3906,553.7656 C446.25,553.6406 446.2188,553.5156 446.1563,553.1094 C446.0625,552.7031 445.8906,552.4844 445.4063,552.2031 C444.9375,551.9531 444.3281,551.7969 443.75,551.7969 C442.0156,551.7969 440.7656,553.1094 440.7656,554.8906 L440.7656,555.9844 C440.7656,557.6875 442.0625,558.7813 444.1094,558.7813 C444.875,558.7813 445.5625,558.6563 445.9844,558.3906 C446.1719,558.2969 446.1719,558.2969 446.625,557.8125 C446.8125,557.625 447.0156,557.5469 447.2344,557.5469 C447.7031,557.5469 448.0938,557.9375 448.0938,558.3906 C448.0938,558.7813 447.7656,559.2344 447.1875,559.6406 C446.4375,560.1875 445.2813,560.4844 444.0625,560.4844 C441.1719,560.4844 439.0625,558.5938 439.0625,556.0156 L439.0625,554.8906 C439.0625,552.1719 441.0625,550.0938 443.6875,550.0938 C444.5625,550.0938 445.1563,550.2344 446.0938,550.6719 Z "/><text fill="#000000" font-family="sans-serif" font-size="12" lengthAdjust="spacingAndGlyphs" textLength="172" x="464.25" y="559.1543">uxrUDPPlatform &lt;&lt;Linux&gt;&gt;</text><line style="stroke: #383838; stroke-width: 1.5;" x1="381.5" x2="686.5" y1="571" y2="571"/><rect fill="none" height="6" style="stroke: #595959; stroke-width: 1.0;" width="6" x="388.5" y="579.9023"/><text fill="#000000" font-family="sans-serif" font-size="11" lengthAdjust="spacingAndGlyphs" textLength="166" x="400.5" y="585.2104">struct sockaddr remote_addr</text><rect fill="none" height="6" style="stroke: #595959; stroke-width: 1.0;" width="6" x="388.5" y="592.707"/><text fill="#000000" font-family="sans-serif" font-size="11" lengthAdjust="spacingAndGlyphs" textLength="109" x="400.5" y="598.0151">struct pollfd poll_fd</text><line style="stroke: #383838; stroke-width: 1.5;" x1="381.5" x2="686.5" y1="604.6094" y2="604.6094"/><rect fill="#808080" height="6" style="stroke: #595959; stroke-width: 1.0;" width="6" x="388.5" y="613.5117"/><text fill="#000000" font-family="sans-serif" font-size="11" lengthAdjust="spacingAndGlyphs" textLength="24" x="400.5" y="618.8198">bool</text><text fill="#000000" font-family="sans-serif" font-size="11" font-weight="bold" lengthAdjust="spacingAndGlyphs" textLength="147" x="428.5" y="618.8198">uxr_init_udp_platform()</text><text fill="#000000" font-family="sans-serif" font-size="11" lengthAdjust="spacingAndGlyphs" textLength="47" x="579.5" y="618.8198">override</text><rect fill="#808080" height="6" style="stroke: #595959; stroke-width: 1.0;" width="6" x="388.5" y="626.3164"/><text fill="#000000" font-family="sans-serif" font-size="11" lengthAdjust="spacingAndGlyphs" textLength="24" x="400.5" y="631.6245">bool</text><text fill="#000000" font-family="sans-serif" font-size="11" font-weight="bold" lengthAdjust="spacingAndGlyphs" textLength="160" x="428.5" y="631.6245">uxr_close_udp_platform()</text><text fill="#000000" font-family="sans-serif" font-size="11" lengthAdjust="spacingAndGlyphs" textLength="47" x="592.5" y="631.6245">override</text><rect fill="#808080" height="6" style="stroke: #595959; stroke-width: 1.0;" width="6" x="388.5" y="639.1211"/><text fill="#000000" font-family="sans-serif" font-size="11" lengthAdjust="spacingAndGlyphs" textLength="32" x="400.5" y="644.4292">size_t</text><text fill="#000000" font-family="sans-serif" font-size="11" font-weight="bold" lengthAdjust="spacingAndGlyphs" textLength="194" x="436.5" y="644.4292">uxr_write_udp_data_platform()</text><text fill="#000000" font-family="sans-serif" font-size="11" lengthAdjust="spacingAndGlyphs" textLength="47" x="634.5" y="644.4292">override</text><rect fill="#808080" height="6" style="stroke: #595959; stroke-width: 1.0;" width="6" x="388.5" y="651.9258"/><text fill="#000000" font-family="sans-serif" font-size="11" lengthAdjust="spacingAndGlyphs" textLength="32" x="400.5" y="657.2339">size_t</text><text fill="#000000" font-family="sans-serif" font-size="11" font-weight="bold" lengthAdjust="spacingAndGlyphs" textLength="190" x="436.5" y="657.2339">uxr_read_udp_data_platform()</text><text fill="#000000" font-family="sans-serif" font-size="11" lengthAdjust="spacingAndGlyphs" textLength="47" x="630.5" y="657.2339">override</text><!--class uxrUDPPlatform <<Windows>>--><rect fill="#F8F8F8" filter="url(#f1x84nfi1yysgz)" height="124.8281" id="uxrUDPPlatform &lt;&lt;Windows&gt;&gt;" rx="10" ry="10" style="stroke: #383838; stroke-width: 1.5;" width="307" x="38.5" y="539"/><ellipse cx="90.25" cy="555" fill="#C2C2C2" rx="11" ry="11" style="stroke: #383838; stroke-width: 1.0;"/><path d="M92.5938,550.6719 L92.7656,550.75 C92.9844,550.4375 93.1875,550.3438 93.4844,550.3438 C93.7813,550.3438 94.0625,550.4844 94.2188,550.75 C94.3125,550.9063 94.3281,551.0313 94.3281,551.4688 L94.3281,552.8906 C94.3281,553.3125 94.2969,553.5 94.1875,553.6563 C94.0156,553.875 93.75,554.0156 93.4844,554.0156 C93.2656,554.0156 93.0313,553.9063 92.8906,553.7656 C92.75,553.6406 92.7188,553.5156 92.6563,553.1094 C92.5625,552.7031 92.3906,552.4844 91.9063,552.2031 C91.4375,551.9531 90.8281,551.7969 90.25,551.7969 C88.5156,551.7969 87.2656,553.1094 87.2656,554.8906 L87.2656,555.9844 C87.2656,557.6875 88.5625,558.7813 90.6094,558.7813 C91.375,558.7813 92.0625,558.6563 92.4844,558.3906 C92.6719,558.2969 92.6719,558.2969 93.125,557.8125 C93.3125,557.625 93.5156,557.5469 93.7344,557.5469 C94.2031,557.5469 94.5938,557.9375 94.5938,558.3906 C94.5938,558.7813 94.2656,559.2344 93.6875,559.6406 C92.9375,560.1875 91.7813,560.4844 90.5625,560.4844 C87.6719,560.4844 85.5625,558.5938 85.5625,556.0156 L85.5625,554.8906 C85.5625,552.1719 87.5625,550.0938 90.1875,550.0938 C91.0625,550.0938 91.6563,550.2344 92.5938,550.6719 Z "/><text fill="#000000" font-family="sans-serif" font-size="12" lengthAdjust="spacingAndGlyphs" textLength="195" x="110.75" y="559.1543">uxrUDPPlatform &lt;&lt;Windows&gt;&gt;</text><line style="stroke: #383838; stroke-width: 1.5;" x1="39.5" x2="344.5" y1="571" y2="571"/><rect fill="none" height="6" style="stroke: #595959; stroke-width: 1.0;" width="6" x="46.5" y="579.9023"/><text fill="#000000" font-family="sans-serif" font-size="11" lengthAdjust="spacingAndGlyphs" textLength="166" x="58.5" y="585.2104">struct sockaddr remote_addr</text><rect fill="none" height="6" style="stroke: #595959; stroke-width: 1.0;" width="6" x="46.5" y="592.707"/><text fill="#000000" font-family="sans-serif" font-size="11" lengthAdjust="spacingAndGlyphs" textLength="142" x="58.5" y="598.0151">WSAPOLLFD pollfd poll_fd</text><line style="stroke: #383838; stroke-width: 1.5;" x1="39.5" x2="344.5" y1="604.6094" y2="604.6094"/><rect fill="#808080" height="6" style="stroke: #595959; stroke-width: 1.0;" width="6" x="46.5" y="613.5117"/><text fill="#000000" font-family="sans-serif" font-size="11" lengthAdjust="spacingAndGlyphs" textLength="24" x="58.5" y="618.8198">bool</text><text fill="#000000" font-family="sans-serif" font-size="11" font-weight="bold" lengthAdjust="spacingAndGlyphs" textLength="147" x="86.5" y="618.8198">uxr_init_udp_platform()</text><text fill="#000000" font-family="sans-serif" font-size="11" lengthAdjust="spacingAndGlyphs" textLength="47" x="237.5" y="618.8198">override</text><rect fill="#808080" height="6" style="stroke: #595959; stroke-width: 1.0;" width="6" x="46.5" y="626.3164"/><text fill="#000000" font-family="sans-serif" font-size="11" lengthAdjust="spacingAndGlyphs" textLength="24" x="58.5" y="631.6245">bool</text><text fill="#000000" font-family="sans-serif" font-size="11" font-weight="bold" lengthAdjust="spacingAndGlyphs" textLength="160" x="86.5" y="631.6245">uxr_close_udp_platform()</text><text fill="#000000" font-family="sans-serif" font-size="11" lengthAdjust="spacingAndGlyphs" textLength="47" x="250.5" y="631.6245">override</text><rect fill="#808080" height="6" style="stroke: #595959; stroke-width: 1.0;" width="6" x="46.5" y="639.1211"/><text fill="#000000" font-family="sans-serif" font-size="11" lengthAdjust="spacingAndGlyphs" textLength="32" x="58.5" y="644.4292">size_t</text><text fill="#000000" font-family="sans-serif" font-size="11" font-weight="bold" lengthAdjust="spacingAndGlyphs" textLength="194" x="94.5" y="644.4292">uxr_write_udp_data_platform()</text><text fill="#000000" font-family="sans-serif" font-size="11" lengthAdjust="spacingAndGlyphs" textLength="47" x="292.5" y="644.4292">override</text><rect fill="#808080" height="6" style="stroke: #595959; stroke-width: 1.0;" width="6" x="46.5" y="651.9258"/><text fill="#000000" font-family="sans-serif" font-size="11" lengthAdjust="spacingAndGlyphs" textLength="32" x="58.5" y="657.2339">size_t</text><text fill="#000000" font-family="sans-serif" font-size="11" font-weight="bold" lengthAdjust="spacingAndGlyphs" textLength="190" x="94.5" y="657.2339">uxr_read_udp_data_platform()</text><text fill="#000000" font-family="sans-serif" font-size="11" lengthAdjust="spacingAndGlyphs" textLength="47" x="288.5" y="657.2339">override</text><!--link uxrCommunication to uxrUDPTransport--><path d="M361,191.432 C361,208.692 361,227.371 361,245.708 " fill="none" id="uxrCommunication-uxrUDPTransport" style="stroke: #383838; stroke-width: 1.0;"/><polygon fill="none" points="354,191.2,361,171.2,368,191.2,354,191.2" style="stroke: #383838; stroke-width: 1.0;"/><!--link uxrUDPTransport to uxrUDPPlatform <<Linux>>--><path d="M449.335,480.843 C463.607,501.015 477.813,521.092 490.397,538.876 " fill="none" id="uxrUDPTransport-uxrUDPPlatform &lt;&lt;Linux&gt;&gt;" style="stroke: #383838; stroke-width: 1.0;"/><polygon fill="none" points="443.474,484.679,437.636,464.309,454.902,476.592,443.474,484.679" style="stroke: #383838; stroke-width: 1.0;"/><!--link uxrUDPTransport to uxrUDPPlatform <<Windows>>--><path d="M274.707,480.843 C260.765,501.015 246.888,521.092 234.595,538.876 " fill="none" id="uxrUDPTransport-uxrUDPPlatform &lt;&lt;Windows&gt;&gt;" style="stroke: #383838; stroke-width: 1.0;"/><polygon fill="none" points="269.006,476.781,286.136,464.309,280.522,484.742,269.006,476.781" style="stroke: #383838; stroke-width: 1.0;"/><!--
@startuml
skinparam roundcorner 20
skinparam monochrome true

package "session layer" <<Rectangle>> {
    class uxrCommunication
}

interface uxrCommunication {
    void* instance
    +virtual bool <b>send_msg_func()</b> = 0
    +virtual bool <b>recv_msg_func()</b> = 0
    +virtual uint8_t <b>comm_error_func()</b> = 0
    uint16_t mtu
}

package "transport layer" <<Rectangle>> {
    class uxrUDPTransport
}

interface uxrUDPTransport {
    uxrCommunication comm
    uxrUDPPlatform* platform
    uint8_t buffer[mtu_size]
    - - - -
    +bool <b>send_udp_message()</b> override
    +bool <b>recv_udp_message()</b> override
    +bool <b>get_udp_error()</b> override
    ....
    +bool <b>uxr_init_udp_transport()</b>
    +bool <b>uxr_close_udp_transport()</b>
    ....
    -virtual bool <b>uxr_init_udp_platform()</b> = 0
    -virtual bool <b>uxr_close_udp_platform()</b> = 0
    -virtual size_t <b>uxr_write_udp_data_platform()</b> = 0
    -virtual size_t <b>uxr_read_udp_data_platform()</b> = 0
}

package "platform layer" <<Rectangle>> {
    class "uxrUDPPlatform <<Linux>>"
    class "uxrUDPPlatform <<Windows>>"
}

class "uxrUDPPlatform <<Linux>>" {
    -struct sockaddr remote_addr
    -struct pollfd poll_fd
    -bool <b>uxr_init_udp_platform()</b> override
    -bool <b>uxr_close_udp_platform()</b> override
    -size_t <b>uxr_write_udp_data_platform()</b> override 
    -size_t <b>uxr_read_udp_data_platform()</b> override
}

class "uxrUDPPlatform <<Windows>>" {
    -struct sockaddr remote_addr
    -WSAPOLLFD pollfd poll_fd
    -bool <b>uxr_init_udp_platform()</b> override
    -bool <b>uxr_close_udp_platform()</b> override
    -size_t <b>uxr_write_udp_data_platform()</b> override 
    -size_t <b>uxr_read_udp_data_platform()</b> override
}

uxrCommunication <|- - uxrUDPTransport
uxrUDPTransport <|- - "uxrUDPPlatform <<Linux>>"
uxrUDPTransport <|- - "uxrUDPPlatform <<Windows>>"
@enduml

PlantUML version 1.2018.15beta2(Unknown compile time)
(GPL source distribution)
Java Runtime: Java(TM) SE Runtime Environment
JVM: Java HotSpot(TM) 64-Bit Server VM
Java Version: 1.7.0_25-b15
Operating System: Linux
Default Encoding: UTF-8
Language: en
Country: US
--></g></svg>