<?xml version="1.0" encoding="UTF-8" standalone="no"?><svg xmlns="http://www.w3.org/2000/svg" xmlns:xlink="http://www.w3.org/1999/xlink" contentScriptType="application/ecmascript" contentStyleType="text/css" height="403px" preserveAspectRatio="none" style="width:400px;height:403px;" version="1.1" viewBox="0 0 400 403" width="400px" zoomAndPan="magnify"><defs><filter height="300%" id="f291tvpyjdbd2" width="300%" x="-1" y="-1"><feGaussianBlur result="blurOut" stdDeviation="2.0"/><feColorMatrix in="blurOut" result="blurOut2" type="matrix" values="0 0 0 0 0 0 0 0 0 0 0 0 0 0 0 0 0 0 .4 0"/><feOffset dx="4.0" dy="4.0" in="blurOut2" result="blurOut3"/><feBlend in="SourceGraphic" in2="blurOut3" mode="normal"/></filter></defs><g><!--MD5=[22fb62275ddbf8346d6d0a799ba52589]
class ProxyClient--><rect fill="#F8F8F8" filter="url(#f291tvpyjdbd2)" height="65.6094" id="ProxyClient" rx="10" ry="10" style="stroke: #383838; stroke-width: 1.5;" width="166" x="112.5" y="8"/><ellipse cx="157.25" cy="24" fill="#C2C2C2" rx="11" ry="11" style="stroke: #383838; stroke-width: 1.0;"/><path d="M159.5938,19.6719 L159.7656,19.75 C159.9844,19.4375 160.1875,19.3438 160.4844,19.3438 C160.7813,19.3438 161.0625,19.4844 161.2188,19.75 C161.3125,19.9063 161.3281,20.0313 161.3281,20.4688 L161.3281,21.8906 C161.3281,22.3125 161.2969,22.5 161.1875,22.6563 C161.0156,22.875 160.75,23.0156 160.4844,23.0156 C160.2656,23.0156 160.0313,22.9063 159.8906,22.7656 C159.75,22.6406 159.7188,22.5156 159.6563,22.1094 C159.5625,21.7031 159.3906,21.4844 158.9063,21.2031 C158.4375,20.9531 157.8281,20.7969 157.25,20.7969 C155.5156,20.7969 154.2656,22.1094 154.2656,23.8906 L154.2656,24.9844 C154.2656,26.6875 155.5625,27.7813 157.6094,27.7813 C158.375,27.7813 159.0625,27.6563 159.4844,27.3906 C159.6719,27.2969 159.6719,27.2969 160.125,26.8125 C160.3125,26.625 160.5156,26.5469 160.7344,26.5469 C161.2031,26.5469 161.5938,26.9375 161.5938,27.3906 C161.5938,27.7813 161.2656,28.2344 160.6875,28.6406 C159.9375,29.1875 158.7813,29.4844 157.5625,29.4844 C154.6719,29.4844 152.5625,27.5938 152.5625,25.0156 L152.5625,23.8906 C152.5625,21.1719 154.5625,19.0938 157.1875,19.0938 C158.0625,19.0938 158.6563,19.2344 159.5938,19.6719 Z "/><text fill="#000000" font-family="sans-serif" font-size="12" lengthAdjust="spacingAndGlyphs" textLength="68" x="177.75" y="28.1543">ProxyClient</text><line style="stroke: #383838; stroke-width: 1.5;" x1="113.5" x2="277.5" y1="40" y2="40"/><rect fill="#808080" height="6" style="stroke: #595959; stroke-width: 1.0;" width="6" x="120.5" y="48"/><text fill="#000000" font-family="sans-serif" font-size="11" lengthAdjust="spacingAndGlyphs" textLength="24" x="132.5" y="54.2104">bool</text><text fill="#000000" font-family="sans-serif" font-size="11" font-weight="bold" lengthAdjust="spacingAndGlyphs" textLength="112" x="160.5" y="54.2104">create_&lt;entity&gt;()</text><rect fill="#808080" height="6" style="stroke: #595959; stroke-width: 1.0;" width="6" x="120.5" y="60.8047"/><text fill="#000000" font-family="sans-serif" font-size="11" lengthAdjust="spacingAndGlyphs" textLength="24" x="132.5" y="67.0151">bool</text><text fill="#000000" font-family="sans-serif" font-size="11" font-weight="bold" lengthAdjust="spacingAndGlyphs" textLength="97" x="160.5" y="67.0151">delete_object()</text><!--MD5=[e7164125e6631aa5fad182c6654e22fe]
class Middleware--><rect fill="#F8F8F8" filter="url(#f291tvpyjdbd2)" height="145.6328" id="Middleware" rx="10" ry="10" style="stroke: #383838; stroke-width: 1.5;" width="239" x="76" y="134"/><ellipse cx="155.75" cy="150" fill="#B1B1B1" rx="11" ry="11" style="stroke: #383838; stroke-width: 1.0;"/><path d="M156.7031,146.7813 L156.7031,153.2969 L158.4219,153.2969 C158.875,153.2969 159.0156,153.3281 159.1875,153.4531 C159.4219,153.625 159.5313,153.875 159.5313,154.1563 C159.5313,154.7188 159.1719,155 158.4219,155 L153.2813,155 C152.875,155 152.6719,154.9531 152.5156,154.8281 C152.2969,154.6719 152.1563,154.4063 152.1563,154.1563 C152.1563,153.8594 152.3125,153.5781 152.5625,153.4219 C152.7188,153.3125 152.8438,153.2969 153.2813,153.2969 L155,153.2969 L155,146.7813 L153.2813,146.7813 C152.8594,146.7813 152.6719,146.75 152.5156,146.6406 C152.2969,146.4688 152.1563,146.2188 152.1563,145.9375 C152.1563,145.6563 152.3125,145.3594 152.5625,145.2031 C152.7188,145.1094 152.8438,145.0938 153.2813,145.0938 L158.4219,145.0938 C158.875,145.0938 159.0156,145.125 159.1875,145.2344 C159.4219,145.4063 159.5313,145.6719 159.5313,145.9375 C159.5313,146.2344 159.3906,146.5156 159.125,146.6719 C159,146.75 158.8125,146.7813 158.4219,146.7813 Z "/><text fill="#000000" font-family="sans-serif" font-size="12" font-style="italic" lengthAdjust="spacingAndGlyphs" textLength="71" x="176.25" y="154.1543">Middleware</text><line style="stroke: #383838; stroke-width: 1.5;" x1="77" x2="314" y1="166" y2="166"/><rect fill="#808080" height="6" style="stroke: #595959; stroke-width: 1.0;" width="6" x="84" y="174"/><text fill="#000000" font-family="sans-serif" font-size="11" lengthAdjust="spacingAndGlyphs" textLength="24" x="96" y="180.2104">bool</text><text fill="#000000" font-family="sans-serif" font-size="11" font-weight="bold" lengthAdjust="spacingAndGlyphs" textLength="157" x="124" y="180.2104">create_&lt;entity&gt;_by_ref()</text><text fill="#000000" font-family="sans-serif" font-size="11" lengthAdjust="spacingAndGlyphs" textLength="20" x="285" y="180.2104">= 0</text><rect fill="#808080" height="6" style="stroke: #595959; stroke-width: 1.0;" width="6" x="84" y="186.8047"/><text fill="#000000" font-family="sans-serif" font-size="11" lengthAdjust="spacingAndGlyphs" textLength="24" x="96" y="193.0151">bool</text><text fill="#000000" font-family="sans-serif" font-size="11" font-weight="bold" lengthAdjust="spacingAndGlyphs" textLength="161" x="124" y="193.0151">create_&lt;entity&gt;_by_xml()</text><text fill="#000000" font-family="sans-serif" font-size="11" lengthAdjust="spacingAndGlyphs" textLength="20" x="289" y="193.0151">= 0</text><rect fill="#808080" height="6" style="stroke: #595959; stroke-width: 1.0;" width="6" x="84" y="199.6094"/><text fill="#000000" font-family="sans-serif" font-size="11" lengthAdjust="spacingAndGlyphs" textLength="24" x="96" y="205.8198">bool</text><text fill="#000000" font-family="sans-serif" font-size="11" font-weight="bold" lengthAdjust="spacingAndGlyphs" textLength="112" x="124" y="205.8198">delete_&lt;entity&gt;()</text><text fill="#000000" font-family="sans-serif" font-size="11" lengthAdjust="spacingAndGlyphs" textLength="20" x="240" y="205.8198">= 0</text><line style="stroke: #383838; stroke-width: 1.0;" x1="77" x2="314" y1="212.4141" y2="212.4141"/><rect fill="#808080" height="6" style="stroke: #595959; stroke-width: 1.0;" width="6" x="84" y="220.4141"/><text fill="#000000" font-family="sans-serif" font-size="11" lengthAdjust="spacingAndGlyphs" textLength="24" x="96" y="226.6245">bool</text><text fill="#000000" font-family="sans-serif" font-size="11" font-weight="bold" lengthAdjust="spacingAndGlyphs" textLength="78" x="124" y="226.6245">write_data()</text><text fill="#000000" font-family="sans-serif" font-size="11" lengthAdjust="spacingAndGlyphs" textLength="20" x="206" y="226.6245">= 0</text><rect fill="#808080" height="6" style="stroke: #595959; stroke-width: 1.0;" width="6" x="84" y="233.2188"/><text fill="#000000" font-family="sans-serif" font-size="11" lengthAdjust="spacingAndGlyphs" textLength="24" x="96" y="239.4292">bool</text><text fill="#000000" font-family="sans-serif" font-size="11" font-weight="bold" lengthAdjust="spacingAndGlyphs" textLength="74" x="124" y="239.4292">read_data()</text><text fill="#000000" font-family="sans-serif" font-size="11" lengthAdjust="spacingAndGlyphs" textLength="20" x="202" y="239.4292">= 0</text><line style="stroke: #383838; stroke-width: 1.0;" x1="77" x2="314" y1="246.0234" y2="246.0234"/><rect fill="#808080" height="6" style="stroke: #595959; stroke-width: 1.0;" width="6" x="84" y="254.0234"/><text fill="#000000" font-family="sans-serif" font-size="11" lengthAdjust="spacingAndGlyphs" textLength="24" x="96" y="260.2339">bool</text><text fill="#000000" font-family="sans-serif" font-size="11" font-weight="bold" lengthAdjust="spacingAndGlyphs" textLength="155" x="124" y="260.2339">match_&lt;entity&gt;_by_ref()</text><text fill="#000000" font-family="sans-serif" font-size="11" lengthAdjust="spacingAndGlyphs" textLength="20" x="283" y="260.2339">= 0</text><rect fill="#808080" height="6" style="stroke: #595959; stroke-width: 1.0;" width="6" x="84" y="266.8281"/><text fill="#000000" font-family="sans-serif" font-size="11" lengthAdjust="spacingAndGlyphs" textLength="24" x="96" y="273.0386">bool</text><text fill="#000000" font-family="sans-serif" font-size="11" font-weight="bold" lengthAdjust="spacingAndGlyphs" textLength="159" x="124" y="273.0386">match_&lt;entity&gt;_by_xml()</text><text fill="#000000" font-family="sans-serif" font-size="11" lengthAdjust="spacingAndGlyphs" textLength="20" x="287" y="273.0386">= 0</text><!--MD5=[308410776a3027f03210c07726b46dec]
class FastMiddleware--><rect fill="#F8F8F8" filter="url(#f291tvpyjdbd2)" height="52.8047" id="FastMiddleware" rx="10" ry="10" style="stroke: #383838; stroke-width: 1.5;" width="171" x="6" y="340"/><ellipse cx="39.9" cy="356" fill="#C2C2C2" rx="11" ry="11" style="stroke: #383838; stroke-width: 1.0;"/><path d="M42.2438,351.6719 L42.4156,351.75 C42.6344,351.4375 42.8375,351.3438 43.1344,351.3438 C43.4313,351.3438 43.7125,351.4844 43.8688,351.75 C43.9625,351.9063 43.9781,352.0313 43.9781,352.4688 L43.9781,353.8906 C43.9781,354.3125 43.9469,354.5 43.8375,354.6563 C43.6656,354.875 43.4,355.0156 43.1344,355.0156 C42.9156,355.0156 42.6813,354.9063 42.5406,354.7656 C42.4,354.6406 42.3688,354.5156 42.3063,354.1094 C42.2125,353.7031 42.0406,353.4844 41.5563,353.2031 C41.0875,352.9531 40.4781,352.7969 39.9,352.7969 C38.1656,352.7969 36.9156,354.1094 36.9156,355.8906 L36.9156,356.9844 C36.9156,358.6875 38.2125,359.7813 40.2594,359.7813 C41.025,359.7813 41.7125,359.6563 42.1344,359.3906 C42.3219,359.2969 42.3219,359.2969 42.775,358.8125 C42.9625,358.625 43.1656,358.5469 43.3844,358.5469 C43.8531,358.5469 44.2438,358.9375 44.2438,359.3906 C44.2438,359.7813 43.9156,360.2344 43.3375,360.6406 C42.5875,361.1875 41.4313,361.4844 40.2125,361.4844 C37.3219,361.4844 35.2125,359.5938 35.2125,357.0156 L35.2125,355.8906 C35.2125,353.1719 37.2125,351.0938 39.8375,351.0938 C40.7125,351.0938 41.3063,351.2344 42.2438,351.6719 Z "/><text fill="#000000" font-family="sans-serif" font-size="12" lengthAdjust="spacingAndGlyphs" textLength="97" x="58.1" y="360.1543">FastMiddleware</text><line style="stroke: #383838; stroke-width: 1.5;" x1="7" x2="176" y1="372" y2="372"/><text fill="#000000" font-family="sans-serif" font-size="11" lengthAdjust="spacingAndGlyphs" textLength="159" x="12" y="386.2104">"Fast RTPS implementation"</text><!--MD5=[cc4cd448b4ac1604e463ec8a0c13ced2]
class CedMiddleware--><rect fill="#F8F8F8" filter="url(#f291tvpyjdbd2)" height="52.8047" id="CedMiddleware" rx="10" ry="10" style="stroke: #383838; stroke-width: 1.5;" width="177" x="212" y="340"/><ellipse cx="249.95" cy="356" fill="#C2C2C2" rx="11" ry="11" style="stroke: #383838; stroke-width: 1.0;"/><path d="M252.2938,351.6719 L252.4656,351.75 C252.6844,351.4375 252.8875,351.3438 253.1844,351.3438 C253.4813,351.3438 253.7625,351.4844 253.9188,351.75 C254.0125,351.9063 254.0281,352.0313 254.0281,352.4688 L254.0281,353.8906 C254.0281,354.3125 253.9969,354.5 253.8875,354.6563 C253.7156,354.875 253.45,355.0156 253.1844,355.0156 C252.9656,355.0156 252.7313,354.9063 252.5906,354.7656 C252.45,354.6406 252.4188,354.5156 252.3563,354.1094 C252.2625,353.7031 252.0906,353.4844 251.6063,353.2031 C251.1375,352.9531 250.5281,352.7969 249.95,352.7969 C248.2156,352.7969 246.9656,354.1094 246.9656,355.8906 L246.9656,356.9844 C246.9656,358.6875 248.2625,359.7813 250.3094,359.7813 C251.075,359.7813 251.7625,359.6563 252.1844,359.3906 C252.3719,359.2969 252.3719,359.2969 252.825,358.8125 C253.0125,358.625 253.2156,358.5469 253.4344,358.5469 C253.9031,358.5469 254.2938,358.9375 254.2938,359.3906 C254.2938,359.7813 253.9656,360.2344 253.3875,360.6406 C252.6375,361.1875 251.4813,361.4844 250.2625,361.4844 C247.3719,361.4844 245.2625,359.5938 245.2625,357.0156 L245.2625,355.8906 C245.2625,353.1719 247.2625,351.0938 249.8875,351.0938 C250.7625,351.0938 251.3563,351.2344 252.2938,351.6719 Z "/><text fill="#000000" font-family="sans-serif" font-size="12" lengthAdjust="spacingAndGlyphs" textLength="94" x="269.05" y="360.1543">CedMiddleware</text><line style="stroke: #383838; stroke-width: 1.5;" x1="213" x2="388" y1="372" y2="372"/><text fill="#000000" font-family="sans-serif" font-size="11" lengthAdjust="spacingAndGlyphs" textLength="165" x="218" y="386.2104">"Centralized implementation"</text><!--MD5=[e7e54302f6ea2e4a90552ec0b9505612]
link ProxyClient to Middleware--><path d="M195.5,86.01 C195.5,86.01 195.5,109.076 195.5,120.634 " fill="none" id="ProxyClient-Middleware" style="stroke: #383838; stroke-width: 1.0;"/><polygon fill="#383838" points="195.5,133.673,199.5,124.673,195.5,128.673,191.5,124.673,195.5,133.673" style="stroke: #383838; stroke-width: 1.0;"/><line style="stroke: #383838; stroke-width: 1.0;" x1="195.5" x2="195.5" y1="128.673" y2="120.673"/><polygon fill="#383838" points="195.5,74.01,191.5,80.01,195.5,86.01,199.5,80.01,195.5,74.01" style="stroke: #383838; stroke-width: 1.0;"/><!--MD5=[20f6cefc34635bce4dca769079fe7a70]
reverse link Middleware to FastMiddleware--><path d="M136.517,297.3251 C126.217,312.9236 116.289,327.9583 108.39,339.9212 " fill="none" id="Middleware&lt;-FastMiddleware" style="stroke: #383838; stroke-width: 1.0;"/><polygon fill="none" points="130.899,293.129,147.761,280.296,142.582,300.8434,130.899,293.129" style="stroke: #383838; stroke-width: 1.0;"/><!--MD5=[2ee794498f46cbe05958be2293ebf4ee]
reverse link Middleware to CedMiddleware--><path d="M255.05,297.3251 C265.449,312.9236 275.472,327.9583 283.447,339.9212 " fill="none" id="Middleware&lt;-CedMiddleware" style="stroke: #383838; stroke-width: 1.0;"/><polygon fill="none" points="248.967,300.8204,243.698,280.296,260.616,293.0546,248.967,300.8204" style="stroke: #383838; stroke-width: 1.0;"/><!--MD5=[4ea7f259391f0f520b38a04f19852967]
@startuml
skinparam roundcorner 20
skinparam monochrome true

class ProxyClient {
    - bool **create_<entity>()**
    - bool **delete_object()**
}

interface Middleware {
    - bool **create_<entity>_by_ref()** = 0
    - bool **create_<entity>_by_xml()** = 0
    - bool **delete_<entity>()** = 0
    - - -
    - bool **write_data()** = 0
    - bool **read_data()** = 0
    - - -
    - bool **match_<entity>_by_ref()** = 0
    - bool **match_<entity>_by_xml()** = 0
}

class FastMiddleware {
    "Fast RTPS implementation"
}

class CedMiddleware {
    "Centralized implementation"
}

ProxyClient     *-down->    Middleware
FastMiddleware  -up-|>      Middleware
CedMiddleware   -up-|>      Middleware

hide ProxyClient fields
hide FastMiddleware methods
hide CedMiddleware methods
@enduml

PlantUML version 1.2019.11(Sun Sep 22 10:02:15 UTC 2019)
(GPL source distribution)
Java Runtime: Java(TM) SE Runtime Environment
JVM: Java HotSpot(TM) 64-Bit Server VM
Java Version: 1.7.0_25-b15
Operating System: Linux
Default Encoding: UTF-8
Language: en
Country: US
--></g></svg>