<?xml version="1.0" encoding="UTF-8" standalone="no"?><svg xmlns="http://www.w3.org/2000/svg" xmlns:xlink="http://www.w3.org/1999/xlink" contentScriptType="application/ecmascript" contentStyleType="text/css" height="641px" preserveAspectRatio="none" style="width:851px;height:641px;" version="1.1" viewBox="0 0 851 641" width="851px" zoomAndPan="magnify"><defs><filter height="300%" id="f74qn5rvm0vb9" width="300%" x="-1" y="-1"><feGaussianBlur result="blurOut" stdDeviation="2.0"/><feColorMatrix in="blurOut" result="blurOut2" type="matrix" values="0 0 0 0 0 0 0 0 0 0 0 0 0 0 0 0 0 0 .4 0"/><feOffset dx="4.0" dy="4.0" in="blurOut2" result="blurOut3"/><feBlend in="SourceGraphic" in2="blurOut3" mode="normal"/></filter></defs><g><!--MD5=[2961754864f8f618d7c3bf20e3a400b8]
cluster aF--><rect fill="#FFFFFF" filter="url(#f74qn5rvm0vb9)" height="404" rx="10" ry="10" style="stroke: #000000; stroke-width: 1.5;" width="257" x="303" y="24"/><path d="M378,25 L378,33.2969 L368,43.2969 L303,43.2969 " fill="none" style="stroke: #000000; stroke-width: 1.5;"/><text fill="#000000" font-family="sans-serif" font-size="14" font-weight="bold" lengthAdjust="spacingAndGlyphs" textLength="65" x="306" y="37.9951">App Foo</text><!--MD5=[8a9c6c745ee3260049ffe32c97ea0bed]
cluster aFaF--><path d="M345,75 L412,75 A15,15 0 0 1 422,85 L429,97.2969 L518,97.2969 A10,10 0 0 1 528,107.2969 L528,339 A10,10 0 0 1 518,349 L345,349 A10,10 0 0 1 335,339 L335,85 A10,10 0 0 1 345,75 " fill="#A1A1A1" filter="url(#f74qn5rvm0vb9)" style="stroke: #000000; stroke-width: 1.5;"/><line style="stroke: #000000; stroke-width: 1.5;" x1="335" x2="429" y1="97.2969" y2="97.2969"/><text fill="#000000" font-family="sans-serif" font-size="14" font-weight="bold" lengthAdjust="spacingAndGlyphs" textLength="81" x="339" y="89.9951">Agent Foo</text><!--MD5=[33b32c9d97b485e843fd1fbe979c02b5]
cluster aB--><rect fill="#FFFFFF" filter="url(#f74qn5rvm0vb9)" height="401" rx="10" ry="10" style="stroke: #000000; stroke-width: 1.5;" width="257" x="22" y="179"/><path d="M94,180 L94,188.2969 L84,198.2969 L22,198.2969 " fill="none" style="stroke: #000000; stroke-width: 1.5;"/><text fill="#000000" font-family="sans-serif" font-size="14" font-weight="bold" lengthAdjust="spacingAndGlyphs" textLength="62" x="25" y="192.9951">App Bar</text><!--MD5=[388e3afc9f2cc5a234fa0e2ec31ce54d]
cluster aBaB--><path d="M64,230 L128,230 A15,15 0 0 1 138,240 L145,252.2969 L237,252.2969 A10,10 0 0 1 247,262.2969 L247,494 A10,10 0 0 1 237,504 L64,504 A10,10 0 0 1 54,494 L54,240 A10,10 0 0 1 64,230 " fill="#A1A1A1" filter="url(#f74qn5rvm0vb9)" style="stroke: #000000; stroke-width: 1.5;"/><line style="stroke: #000000; stroke-width: 1.5;" x1="54" x2="145" y1="252.2969" y2="252.2969"/><text fill="#000000" font-family="sans-serif" font-size="14" font-weight="bold" lengthAdjust="spacingAndGlyphs" textLength="78" x="58" y="244.9951">Agent Bar</text><!--MD5=[2d44705492bb3fcd3864c38b77ca97cd]
cluster aQ--><rect fill="#FFFFFF" filter="url(#f74qn5rvm0vb9)" height="404" rx="10" ry="10" style="stroke: #000000; stroke-width: 1.5;" width="256" x="584" y="226"/><path d="M661,227 L661,235.2969 L651,245.2969 L584,245.2969 " fill="none" style="stroke: #000000; stroke-width: 1.5;"/><text fill="#000000" font-family="sans-serif" font-size="14" font-weight="bold" lengthAdjust="spacingAndGlyphs" textLength="67" x="587" y="239.9951">App Qux</text><!--MD5=[483fdac9eb1762fcbee8fe3662683519]
cluster aQaQ--><path d="M626,277 L695,277 A15,15 0 0 1 705,287 L712,299.2969 L798,299.2969 A10,10 0 0 1 808,309.2969 L808,541 A10,10 0 0 1 798,551 L626,551 A10,10 0 0 1 616,541 L616,287 A10,10 0 0 1 626,277 " fill="#A1A1A1" filter="url(#f74qn5rvm0vb9)" style="stroke: #000000; stroke-width: 1.5;"/><line style="stroke: #000000; stroke-width: 1.5;" x1="616" x2="712" y1="299.2969" y2="299.2969"/><text fill="#000000" font-family="sans-serif" font-size="14" font-weight="bold" lengthAdjust="spacingAndGlyphs" textLength="83" x="620" y="291.9951">Agent Qux</text><!--MD5=[ea3c48145cd23035071f6771c984638d]
entity aFcF--><rect fill="#F8F8F8" filter="url(#f74qn5rvm0vb9)" height="36.2969" rx="10" ry="10" style="stroke: #383838; stroke-width: 1.5;" width="89" x="387" y="376"/><rect fill="#F8F8F8" height="5" style="stroke: #383838; stroke-width: 1.5;" width="10" x="382" y="381"/><rect fill="#F8F8F8" height="5" style="stroke: #383838; stroke-width: 1.5;" width="10" x="382" y="402.2969"/><text fill="#000000" font-family="sans-serif" font-size="14" lengthAdjust="spacingAndGlyphs" textLength="69" x="397" y="398.9951">Client Foo</text><!--MD5=[18b5a138548b61ffbe7009d30ab22b05]
entity aFiB--><rect fill="#F8F8F8" filter="url(#f74qn5rvm0vb9)" height="36.2969" rx="10" ry="10" style="stroke: #383838; stroke-width: 1.5;" width="141" x="361" y="118"/><rect fill="#F8F8F8" height="5" style="stroke: #383838; stroke-width: 1.5;" width="10" x="356" y="123"/><rect fill="#F8F8F8" height="5" style="stroke: #383838; stroke-width: 1.5;" width="10" x="356" y="144.2969"/><text fill="#000000" font-family="sans-serif" font-size="14" lengthAdjust="spacingAndGlyphs" textLength="121" x="371" y="140.9951">Internal Client Bar</text><!--MD5=[46f95756fc2483008dd642788836948b]
entity aFtF--><path d="M391.0768,198.8608 C394.536,190.9946 401.4576,191.4892 405.7156,198.0503 C408.5737,191.0524 414.2631,190.2303 418.6465,196.5718 C422.0666,189.0386 428.4198,189.7331 433.1276,195.1298 C437.2712,189.4195 441.3999,189.7797 445.4009,195.2859 C450.7969,188.9734 456.7735,188.8194 460.9929,196.5887 C464.7154,191.5012 469.6084,191.2184 472.652,197.2975 C481.8621,197.9934 487.5192,203.4252 482.4803,213.0252 C487.4524,221.6461 482.733,228.1115 473.2572,227.5721 C470.6699,235.6212 463.8544,236.2401 459.2931,229.4268 C455.9142,236.0771 450.4071,236.4339 445.7591,230.8283 C442.0978,237.9165 437.3043,238.5092 431.6841,233.0206 C427.4888,239.0117 421.8595,236.5913 419.7245,230.9097 C415.4383,237.8268 408.9454,236.1882 405.4161,230.0783 C400.9807,236.6385 395.1866,234.6199 392.3061,228.4739 C381.9106,228.4431 379.9839,220.8432 384.8119,213.2958 C379.7843,205.2682 381.4614,200.5331 391.0768,198.8608 " fill="#F8F8F8" style="stroke: #000000; stroke-width: 1.5;"/><text fill="#000000" font-family="sans-serif" font-size="14" lengthAdjust="spacingAndGlyphs" textLength="68" x="397.5" y="216.9951">Topic Foo</text><!--MD5=[55f5360c6c3599cc324b8bb56d667d9f]
entity aFiQ--><rect fill="#F8F8F8" filter="url(#f74qn5rvm0vb9)" height="36.2969" rx="10" ry="10" style="stroke: #383838; stroke-width: 1.5;" width="145" x="359" y="270"/><rect fill="#F8F8F8" height="5" style="stroke: #383838; stroke-width: 1.5;" width="10" x="354" y="275"/><rect fill="#F8F8F8" height="5" style="stroke: #383838; stroke-width: 1.5;" width="10" x="354" y="296.2969"/><text fill="#000000" font-family="sans-serif" font-size="14" lengthAdjust="spacingAndGlyphs" textLength="125" x="369" y="292.9951">internal Client Qux</text><!--MD5=[a97f7c5c105763f293814fa5f4203992]
entity aBcB--><rect fill="#F8F8F8" filter="url(#f74qn5rvm0vb9)" height="36.2969" rx="10" ry="10" style="stroke: #383838; stroke-width: 1.5;" width="86" x="107.5" y="528"/><rect fill="#F8F8F8" height="5" style="stroke: #383838; stroke-width: 1.5;" width="10" x="102.5" y="533"/><rect fill="#F8F8F8" height="5" style="stroke: #383838; stroke-width: 1.5;" width="10" x="102.5" y="554.2969"/><text fill="#000000" font-family="sans-serif" font-size="14" lengthAdjust="spacingAndGlyphs" textLength="66" x="117.5" y="550.9951">Client Bar</text><!--MD5=[3f65e008808dbe54492a6c911bf47e82]
entity aBtB--><path d="M107.2418,301.5341 C111.8208,294.3237 117.5052,293.1008 122.854,300.7239 C126.1073,294.3937 133.1111,292.3466 137.615,299.3381 C141.9096,291.6723 146.8508,291.5697 151.6328,298.8819 C156.4351,293.6805 160.9995,293.7642 165.1884,299.6329 C169.46,292.1795 174.8052,292.7677 179.6644,299.012 C185.6911,292.1805 191.2993,291.3256 196.0135,300.3641 C204.4377,304.3882 205.5549,308.7971 198.3525,315.2728 C205.7685,322.7567 202.6035,328.0421 194.3552,331.7186 C191.013,338.9162 185.4171,337.6065 181.2577,332.5954 C177.6273,339.9451 170.7238,342.1319 165.4822,334.2658 C161.5898,340.9445 155.5491,340.1297 151.8186,334.0918 C147.3507,341.814 139.9576,342.1719 136.1886,333.4283 C132.2849,339.9287 125.4655,340.5778 121.8898,333.0929 C117.1502,340.4481 110.9298,338.9978 107.6583,331.6699 C95.9836,332.1519 92.1983,325.7758 97.6345,315.5908 C94.3164,306.4716 98.1342,302.1607 107.2418,301.5341 " fill="#F8F8F8" style="stroke: #000000; stroke-width: 1.5;"/><text fill="#000000" font-family="sans-serif" font-size="14" lengthAdjust="spacingAndGlyphs" textLength="73" x="114" y="319.9951">Topics Bar</text><!--MD5=[c726dccf9cf3c812e7d4313f11d70473]
entity aBiQ--><rect fill="#F8F8F8" filter="url(#f74qn5rvm0vb9)" height="36.2969" rx="10" ry="10" style="stroke: #383838; stroke-width: 1.5;" width="145" x="78" y="444"/><rect fill="#F8F8F8" height="5" style="stroke: #383838; stroke-width: 1.5;" width="10" x="73" y="449"/><rect fill="#F8F8F8" height="5" style="stroke: #383838; stroke-width: 1.5;" width="10" x="73" y="470.2969"/><text fill="#000000" font-family="sans-serif" font-size="14" lengthAdjust="spacingAndGlyphs" textLength="125" x="88" y="466.9951">internal Client Qux</text><!--MD5=[5a205ee6e5f277e079469f730e0354fd]
entity aBiF--><rect fill="#F8F8F8" filter="url(#f74qn5rvm0vb9)" height="36.2969" rx="10" ry="10" style="stroke: #383838; stroke-width: 1.5;" width="144" x="78.5" y="373"/><rect fill="#F8F8F8" height="5" style="stroke: #383838; stroke-width: 1.5;" width="10" x="73.5" y="378"/><rect fill="#F8F8F8" height="5" style="stroke: #383838; stroke-width: 1.5;" width="10" x="73.5" y="399.2969"/><text fill="#000000" font-family="sans-serif" font-size="14" lengthAdjust="spacingAndGlyphs" textLength="124" x="88.5" y="395.9951">internal Client Foo</text><!--MD5=[50543ec861a220f21755128879249fc6]
entity aQcQ--><rect fill="#F8F8F8" filter="url(#f74qn5rvm0vb9)" height="36.2969" rx="10" ry="10" style="stroke: #383838; stroke-width: 1.5;" width="90" x="667" y="578"/><rect fill="#F8F8F8" height="5" style="stroke: #383838; stroke-width: 1.5;" width="10" x="662" y="583"/><rect fill="#F8F8F8" height="5" style="stroke: #383838; stroke-width: 1.5;" width="10" x="662" y="604.2969"/><text fill="#000000" font-family="sans-serif" font-size="14" lengthAdjust="spacingAndGlyphs" textLength="70" x="677" y="600.9951">Client Qux</text><!--MD5=[d52c6402e99709b065124737f1a6a8f0]
entity aQiB--><rect fill="#F8F8F8" filter="url(#f74qn5rvm0vb9)" height="36.2969" rx="10" ry="10" style="stroke: #383838; stroke-width: 1.5;" width="141" x="641.5" y="391"/><rect fill="#F8F8F8" height="5" style="stroke: #383838; stroke-width: 1.5;" width="10" x="636.5" y="396"/><rect fill="#F8F8F8" height="5" style="stroke: #383838; stroke-width: 1.5;" width="10" x="636.5" y="417.2969"/><text fill="#000000" font-family="sans-serif" font-size="14" lengthAdjust="spacingAndGlyphs" textLength="121" x="651.5" y="413.9951">internal Client Bar</text><!--MD5=[8faee741e6fc600d8efa2d51cf8b901a]
entity aQiF--><rect fill="#F8F8F8" filter="url(#f74qn5rvm0vb9)" height="36.2969" rx="10" ry="10" style="stroke: #383838; stroke-width: 1.5;" width="144" x="640" y="320"/><rect fill="#F8F8F8" height="5" style="stroke: #383838; stroke-width: 1.5;" width="10" x="635" y="325"/><rect fill="#F8F8F8" height="5" style="stroke: #383838; stroke-width: 1.5;" width="10" x="635" y="346.2969"/><text fill="#000000" font-family="sans-serif" font-size="14" lengthAdjust="spacingAndGlyphs" textLength="124" x="650" y="342.9951">internal Client Foo</text><!--MD5=[beabc0331f6505eb0833d9b5d75fcffe]
entity aQtQ--><path d="M668.2338,472.1527 C670.5526,466.9386 675.1846,465.2301 679.513,469.8469 C683.5226,464.9933 686.8719,465.0019 690.1866,470.5594 C692.8515,464.328 696.1909,463.0299 701.362,468.0758 C704.3653,462.8593 708.5808,462.8181 712.1517,467.4542 C716.5882,461.708 722.4382,462.5044 725.4632,468.9902 C728.3052,464.5716 732.4068,464.6145 735.3812,468.8382 C739.068,462.9318 744.3706,464.4492 746.9823,469.9332 C751.0212,465.9459 755.0879,465.2264 757.7986,471.3536 C765.3111,474.1891 765.8428,479.5503 761.1289,485.3045 C768.7566,491.7963 766.6067,497.6632 758.3341,501.3928 C755.1621,506.2322 751.5011,506.2295 747.9111,501.8661 C744.7829,507.5017 741.0059,508.5445 736.2166,503.724 C733.6439,510.4914 729.1807,509.6286 724.8371,505.5887 C722.1955,510.964 718.1252,512.0699 713.8276,507.4043 C710.4526,513.4873 705.1282,512.3836 702.1549,506.9956 C696.9968,511.7808 692.159,511.0228 690.0084,503.9222 C686.5416,508.8714 683.2229,508.0635 679.8349,503.8349 C674.9482,507.7377 670.2685,507.2704 668.4193,500.566 C659.6577,499.1324 658.1691,492.4697 662.8167,485.91 C658.887,479.7385 659.4068,473.3011 668.2338,472.1527 " fill="#F8F8F8" style="stroke: #000000; stroke-width: 1.5;"/><text fill="#000000" font-family="sans-serif" font-size="14" lengthAdjust="spacingAndGlyphs" textLength="77" x="673.5" y="489.9951">Topics Qux</text><!--MD5=[dc53565bcca9a67748ec98c2bafc004b]
link aBaB to aFiB--><path d="M247.6126,257 C248.0288,257 248.4454,257 248.8621,257 C249.6957,257 250.5301,257 251.3653,257 C253.0358,257 254.7093,257 256.3842,257 C259.7341,257 263.09,257 266.4395,257 C320.0318,257 372,257 372,257 C372,257 372,159.115 372,159.115 " fill="none" id="aBaB-aFiB" style="stroke: #383838; stroke-width: 1.0; stroke-dasharray: 7.0,7.0;"/><polygon fill="#383838" points="372,154.115,368,163.115,372,159.115,376,163.115,372,154.115" style="stroke: #383838; stroke-width: 1.0;"/><polygon fill="#383838" points="247.6126,257,256.6126,261,252.6126,257,256.6126,253,247.6126,257" style="stroke: #383838; stroke-width: 1.0;"/><!--MD5=[f7a21ccaa6eead8aaf4302bced264a1f]
link aFiQ to aQaQ--><path d="M490,311.339 C490,311.339 490,543 490,543 C490,543 542.0855,543 595.7986,543 C602.5128,543 609.2523,543 615.9188,543 " fill="none" id="aFiQ-aQaQ" style="stroke: #383838; stroke-width: 1.0; stroke-dasharray: 7.0,7.0;"/><polygon fill="#383838" points="615.9188,543,606.9188,539,610.9188,543,606.9188,547,615.9188,543" style="stroke: #383838; stroke-width: 1.0;"/><polygon fill="#383838" points="490,306.339,486,315.339,490,311.339,494,315.339,490,306.339" style="stroke: #383838; stroke-width: 1.0;"/><!--MD5=[08bb51b6ce65a9b649857304c565e2a2]
link aBiF to aFaF--><path d="M213,367.949 C213,367.949 213,341 213,341 C213,341 264.2643,341 317.1305,341 C320.4346,341 323.745,341 327.0496,341 C328.7018,341 330.3526,341 332.0005,341 C332.8244,341 333.6475,341 334.4698,341 " fill="none" id="aBiF-aFaF" style="stroke: #383838; stroke-width: 1.0; stroke-dasharray: 7.0,7.0;"/><polygon fill="#383838" points="334.4698,341,325.4698,337,329.4698,341,325.4698,345,334.4698,341" style="stroke: #383838; stroke-width: 1.0;"/><polygon fill="#383838" points="213,372.949,217,363.949,213,367.949,209,363.949,213,372.949" style="stroke: #383838; stroke-width: 1.0;"/><!--MD5=[e5efc04e85f9619b782eeb58238a7740]
link aBiQ to aQaQ--><path d="M209,485.027 C209,485.027 209,518 209,518 C209,518 334.75,518 460.5,518 C491.9375,518 523.375,518 552.8477,518 C567.584,518 581.8291,518 595.3374,518 C602.0916,518 608.6615,518 615.0165,518 " fill="none" id="aBiQ-aQaQ" style="stroke: #383838; stroke-width: 1.0; stroke-dasharray: 7.0,7.0;"/><polygon fill="#383838" points="615.0165,518,606.0165,514,610.0165,518,606.0165,522,615.0165,518" style="stroke: #383838; stroke-width: 1.0;"/><polygon fill="#383838" points="209,480.027,205,489.027,209,485.027,213,489.027,209,480.027" style="stroke: #383838; stroke-width: 1.0;"/><!--MD5=[5fbff3dd1c2af6475e8eb24dd55d62e1]
link aFaF to aQiF--><path d="M528.6349,341 C530.2182,341 531.8031,341 533.388,341 C584.1045,341 634.821,341 634.821,341 " fill="none" id="aFaF-aQiF" style="stroke: #383838; stroke-width: 1.0; stroke-dasharray: 7.0,7.0;"/><polygon fill="#383838" points="639.821,341,630.821,337,634.821,341,630.821,345,639.821,341" style="stroke: #383838; stroke-width: 1.0;"/><polygon fill="#383838" points="528.6349,341,537.6349,345,533.6349,341,537.6349,337,528.6349,341" style="stroke: #383838; stroke-width: 1.0;"/><!--MD5=[62404995d7175e1f5de3aa3832d6ca1f]
link aBaB to aQiB--><path d="M248.644,264 C259.9502,264 271.873,264 284.207,264 C308.875,264 335.1875,264 361.5,264 C466.75,264 572,264 572,264 C572,264 572,401.5 572,401.5 C572,401.5 636.18,401.5 636.18,401.5 " fill="none" id="aBaB-aQiB" style="stroke: #383838; stroke-width: 1.0; stroke-dasharray: 7.0,7.0;"/><polygon fill="#383838" points="641.18,401.5,632.18,397.5,636.18,401.5,632.18,405.5,641.18,401.5" style="stroke: #383838; stroke-width: 1.0;"/><polygon fill="#383838" points="248.644,264,257.644,268,253.644,264,257.644,260,248.644,264" style="stroke: #383838; stroke-width: 1.0;"/><!--MD5=[0359f19e232548b7729044f4d145b59b]
link aFcF to aFaF--><path d="M432,370.76 C432,370.76 432,363.334 432,355.908 C432,354.0515 432,352.195 432,350.4545 C432,350.0194 432,349.5915 432,349.1727 C432,349.1204 432,349.0682 432,349.0161 " fill="none" id="aFcF-aFaF" style="stroke: #383838; stroke-width: 1.0; stroke-dasharray: 7.0,7.0;"/><polygon fill="#383838" points="432,349.0161,428,358.0161,432,354.0161,436,358.0161,432,349.0161" style="stroke: #383838; stroke-width: 1.0;"/><polygon fill="#383838" points="432,375.76,436,366.76,432,370.76,428,366.76,432,375.76" style="stroke: #383838; stroke-width: 1.0;"/><!--MD5=[af0c5147817bb7c4993531c335486054]
link aBcB to aBaB--><path d="M102.3704,546 C102.3704,546 60,546 60,546 C60,546 60,541.4844 60,533.582 C60,529.6309 60,524.833 60,519.3296 C60,516.5779 60,513.6498 60,510.5629 C60,509.0195 60,507.4364 60,505.8158 C60,505.4106 60,505.0031 60,504.5933 " fill="none" id="aBcB-aBaB" style="stroke: #383838; stroke-width: 1.0; stroke-dasharray: 7.0,7.0;"/><polygon fill="#383838" points="60,504.5933,56,513.5933,60,509.5933,64,513.5933,60,504.5933" style="stroke: #383838; stroke-width: 1.0;"/><polygon fill="#383838" points="107.37,546,98.37,542,102.37,546,98.37,550,107.37,546" style="stroke: #383838; stroke-width: 1.0;"/><!--MD5=[1048818c679802a0a50700677ed4eae8]
link aQcQ to aQaQ--><path d="M712,572.7604 C712,572.7604 712,565.4436 712,558.1267 C712,556.2975 712,554.4683 712,552.7534 C712,552.3247 712,551.9031 712,551.4904 C712,551.3873 712,551.2847 712,551.1827 C712,551.1317 712,551.0808 712,551.0301 " fill="none" id="aQcQ-aQaQ" style="stroke: #383838; stroke-width: 1.0; stroke-dasharray: 7.0,7.0;"/><polygon fill="#383838" points="712,551.0301,708,560.0301,712,556.0301,716,560.0301,712,551.0301" style="stroke: #383838; stroke-width: 1.0;"/><polygon fill="#383838" points="712,577.7604,716,568.7604,712,572.7604,708,568.7604,712,577.7604" style="stroke: #383838; stroke-width: 1.0;"/><!--MD5=[ca6a0bea02a29af1ae999f746e0f26be]
@startuml
skinparam roundcorner 20
skinparam monochrome true
skinparam linetype ortho
left to right direction

frame "App Foo" as aF {
    folder "Agent Foo" as aFaF #LightCoral {
        [Internal Client Bar] as aFiB
        cloud "Topic Foo" as aFtF
        [internal Client Qux] as aFiQ
    }
    [Client Foo] as aFcF
}

frame "App Bar" as aB {
    folder "Agent Bar" as aBaB #LightCoral {
        cloud "Topics Bar" as aBtB
        [internal Client Qux] as aBiQ
        [internal Client Foo] as aBiF
    }
    [Client Bar] as aBcB
}

frame "App Qux" as aQ {
    folder "Agent Qux" as aQaQ #LightCoral {
        [internal Client Bar] as aQiB
        [internal Client Foo] as aQiF
        cloud "Topics Qux" as aQtQ
    }
    [Client Qux] as aQcQ
}

aFiB <.up.> aBaB
aFiQ <.down.> aQaQ
aBiF <.down.> aFaF
aBiQ <.down.> aQaQ
aQiF <.up.> aFaF
aQiB <.up.> aBaB

aFcF <.> aFaF
aBcB <.> aBaB
aQcQ <.> aQaQ
@enduml

PlantUML version 1.2019.11(Sun Sep 22 10:02:15 UTC 2019)
(GPL source distribution)
Java Runtime: Java(TM) SE Runtime Environment
JVM: Java HotSpot(TM) 64-Bit Server VM
Java Version: 1.7.0_25-b15
Operating System: Linux
Default Encoding: UTF-8
Language: en
Country: US
--></g></svg>