<?xml version="1.0" encoding="UTF-8" standalone="no"?>
<svg xmlns="http://www.w3.org/2000/svg" xmlns:xlink="http://www.w3.org/1999/xlink" contentScriptType="application/ecmascript" contentStyleType="text/css" height="457px" preserveAspectRatio="none" style="width:447px;height:457px;" version="1.1" viewBox="0 0 447 457" width="447px" zoomAndPan="magnify"><defs><filter height="300%" id="f1sombvixor3hp" width="300%" x="-1" y="-1"><feGaussianBlur result="blurOut" stdDeviation="2.0"/><feColorMatrix in="blurOut" result="blurOut2" type="matrix" values="0 0 0 0 0 0 0 0 0 0 0 0 0 0 0 0 0 0 .4 0"/><feOffset dx="4.0" dy="4.0" in="blurOut2" result="blurOut3"/><feBlend in="SourceGraphic" in2="blurOut3" mode="normal"/></filter></defs><g><rect fill="#F8F8F8" filter="url(#f1sombvixor3hp)" height="33.9688" style="stroke: #383838; stroke-width: 1.5;" width="102" x="20" y="33.6982"/><line style="stroke: #383838; stroke-width: 1.5;" x1="25" x2="25" y1="33.6982" y2="67.667"/><line style="stroke: #383838; stroke-width: 1.5;" x1="117" x2="117" y1="33.6982" y2="67.667"/><text fill="#000000" font-family="sans-serif" font-size="12" lengthAdjust="spacingAndGlyphs" textLength="82" x="30" y="54.8369">Device Buffer</text><rect fill="#F8F8F8" filter="url(#f1sombvixor3hp)" height="33.9688" rx="12.5" ry="12.5" style="stroke: #383838; stroke-width: 1.5;" width="52" x="45" y="87.667"/><text fill="#000000" font-family="sans-serif" font-size="12" lengthAdjust="spacingAndGlyphs" textLength="32" x="55" y="108.8057">Read</text><rect fill="#F8F8F8" filter="url(#f1sombvixor3hp)" height="33.9688" style="stroke: #383838; stroke-width: 1.5;" width="125" x="141" y="141.6357"/><line style="stroke: #383838; stroke-width: 1.5;" x1="146" x2="146" y1="141.6357" y2="175.6045"/><line style="stroke: #383838; stroke-width: 1.5;" x1="261" x2="261" y1="141.6357" y2="175.6045"/><text fill="#000000" font-family="sans-serif" font-size="12" lengthAdjust="spacingAndGlyphs" textLength="105" x="151" y="162.7744">Unframing Buffer</text><rect fill="#F8F8F8" filter="url(#f1sombvixor3hp)" height="33.9688" rx="12.5" ry="12.5" style="stroke: #383838; stroke-width: 1.5;" width="84" x="161.5" y="195.6045"/><text fill="#000000" font-family="sans-serif" font-size="12" lengthAdjust="spacingAndGlyphs" textLength="64" x="171.5" y="216.7432">Unframing</text><rect fill="#F8F8F8" filter="url(#f1sombvixor3hp)" height="33.9688" rx="12.5" ry="12.5" style="stroke: #383838; stroke-width: 1.5;" width="68" x="169.5" y="249.5732"/><text fill="#000000" font-family="sans-serif" font-size="12" lengthAdjust="spacingAndGlyphs" textLength="48" x="179.5" y="270.7119">Receive</text><rect fill="#F8F8F8" filter="url(#f1sombvixor3hp)" height="33.9688" style="stroke: #383838; stroke-width: 1.5;" width="142" x="284" y="303.542"/><line style="stroke: #383838; stroke-width: 1.5;" x1="289" x2="289" y1="303.542" y2="337.5107"/><line style="stroke: #383838; stroke-width: 1.5;" x1="421" x2="421" y1="303.542" y2="337.5107"/><text fill="#000000" font-family="sans-serif" font-size="12" lengthAdjust="spacingAndGlyphs" textLength="122" x="294" y="324.6807">Input Stream Buffer</text><rect fill="#F8F8F8" filter="url(#f1sombvixor3hp)" height="33.9688" rx="12.5" ry="12.5" style="stroke: #383838; stroke-width: 1.5;" width="111" x="299.5" y="357.5107"/><text fill="#000000" font-family="sans-serif" font-size="12" lengthAdjust="spacingAndGlyphs" textLength="91" x="309.5" y="378.6494">Deserialization</text><polygon fill="#F8F8F8" filter="url(#f1sombvixor3hp)" points="328.5,411.4795,391.5,411.4795,381.5,428.4639,391.5,445.4482,328.5,445.4482" style="stroke: #383838; stroke-width: 1.5;"/><text fill="#000000" font-family="sans-serif" font-size="12" lengthAdjust="spacingAndGlyphs" textLength="33" x="338.5" y="432.6182">Topic</text><line style="stroke: #383838; stroke-width: 1.5;" x1="71" x2="71" y1="67.667" y2="87.667"/><polygon fill="#383838" points="67,77.667,71,87.667,75,77.667,71,81.667" style="stroke: #383838; stroke-width: 1.0;"/><line style="stroke: #383838; stroke-width: 1.5;" x1="203.5" x2="203.5" y1="175.6045" y2="195.6045"/><polygon fill="#383838" points="199.5,185.6045,203.5,195.6045,207.5,185.6045,203.5,189.6045" style="stroke: #383838; stroke-width: 1.0;"/><line style="stroke: #383838; stroke-width: 1.5;" x1="203.5" x2="203.5" y1="229.5732" y2="249.5732"/><polygon fill="#383838" points="199.5,239.5732,203.5,249.5732,207.5,239.5732,203.5,243.5732" style="stroke: #383838; stroke-width: 1.0;"/><line style="stroke: #383838; stroke-width: 1.5;" x1="355" x2="355" y1="337.5107" y2="357.5107"/><polygon fill="#383838" points="351,347.5107,355,357.5107,359,347.5107,355,351.5107" style="stroke: #383838; stroke-width: 1.0;"/><line style="stroke: #383838; stroke-width: 1.5;" x1="355" x2="355" y1="391.4795" y2="411.4795"/><polygon fill="#383838" points="351,401.4795,355,411.4795,359,401.4795,355,405.4795" style="stroke: #383838; stroke-width: 1.0;"/><line style="stroke: #383838; stroke-width: 1.5;" x1="71" x2="71" y1="121.6357" y2="126.6357"/><line style="stroke: #383838; stroke-width: 1.5;" x1="71" x2="203.5" y1="126.6357" y2="126.6357"/><line style="stroke: #383838; stroke-width: 1.5;" x1="203.5" x2="203.5" y1="126.6357" y2="141.6357"/><polygon fill="#383838" points="199.5,131.6357,203.5,141.6357,207.5,131.6357,203.5,135.6357" style="stroke: #383838; stroke-width: 1.0;"/><line style="stroke: #383838; stroke-width: 1.5;" x1="203.5" x2="203.5" y1="283.542" y2="288.542"/><line style="stroke: #383838; stroke-width: 1.5;" x1="203.5" x2="355" y1="288.542" y2="288.542"/><line style="stroke: #383838; stroke-width: 1.5;" x1="355" x2="355" y1="288.542" y2="303.542"/><polygon fill="#383838" points="351,293.542,355,303.542,359,293.542,355,297.542" style="stroke: #383838; stroke-width: 1.0;"/><text fill="#000000" font-family="sans-serif" font-size="18" lengthAdjust="spacingAndGlyphs" textLength="65" x="38" y="29.4531">System</text><text fill="#000000" font-family="sans-serif" font-size="18" lengthAdjust="spacingAndGlyphs" textLength="142" x="132" y="29.4531">Serial Transport</text><text fill="#000000" font-family="sans-serif" font-size="18" lengthAdjust="spacingAndGlyphs" textLength="129" x="290" y="29.4531">XRCE Protocol</text><line style="stroke: #000000; stroke-width: 2.0;" x1="10" x2="10" y1="12.7451" y2="445.4482"/><line style="stroke: #000000; stroke-width: 2.0;" x1="127" x2="127" y1="12.7451" y2="445.4482"/><line style="stroke: #000000; stroke-width: 2.0;" x1="279" x2="279" y1="12.7451" y2="445.4482"/><line style="stroke: #000000; stroke-width: 2.0;" x1="435" x2="435" y1="12.7451" y2="445.4482"/><!--
@startuml
skinparam roundcorner 20
skinparam monochrome true

|System|
:Device Buffer|
:Read;
|Serial Transport|
:Unframing Buffer|
:Unframing;
:Receive;
|XRCE Protocol|
:Input Stream Buffer|
:Deserialization;
:Topic<
@enduml

PlantUML version 1.2018.15beta2(Unknown compile time)
(GPL source distribution)
Java Runtime: Java(TM) SE Runtime Environment
JVM: Java HotSpot(TM) 64-Bit Server VM
Java Version: 1.7.0_25-b15
Operating System: Linux
Default Encoding: UTF-8
Language: en
Country: US
--></g></svg>