<?xml version="1.0" encoding="UTF-8" standalone="no"?>
<svg xmlns="http://www.w3.org/2000/svg" xmlns:xlink="http://www.w3.org/1999/xlink" contentScriptType="application/ecmascript" contentStyleType="text/css" height="457px" preserveAspectRatio="none" style="width:458px;height:457px;" version="1.1" viewBox="0 0 458 457" width="458px" zoomAndPan="magnify"><defs><filter height="300%" id="fy3vnejlsydep" width="300%" x="-1" y="-1"><feGaussianBlur result="blurOut" stdDeviation="2.0"/><feColorMatrix in="blurOut" result="blurOut2" type="matrix" values="0 0 0 0 0 0 0 0 0 0 0 0 0 0 0 0 0 0 .4 0"/><feOffset dx="4.0" dy="4.0" in="blurOut2" result="blurOut3"/><feBlend in="SourceGraphic" in2="blurOut3" mode="normal"/></filter></defs><g><polygon fill="#F8F8F8" filter="url(#fy3vnejlsydep)" points="70,33.6982,123,33.6982,133,50.6826,123,67.667,70,67.667" style="stroke: #383838; stroke-width: 1.5;"/><text fill="#000000" font-family="sans-serif" font-size="12" lengthAdjust="spacingAndGlyphs" textLength="33" x="80" y="54.8369">Topic</text><rect fill="#F8F8F8" filter="url(#fy3vnejlsydep)" height="33.9688" rx="12.5" ry="12.5" style="stroke: #383838; stroke-width: 1.5;" width="95" x="49" y="87.667"/><text fill="#000000" font-family="sans-serif" font-size="12" lengthAdjust="spacingAndGlyphs" textLength="75" x="59" y="108.8057">Serialization</text><rect fill="#F8F8F8" filter="url(#fy3vnejlsydep)" height="33.9688" style="stroke: #383838; stroke-width: 1.5;" width="153" x="20" y="141.6357"/><line style="stroke: #383838; stroke-width: 1.5;" x1="25" x2="25" y1="141.6357" y2="175.6045"/><line style="stroke: #383838; stroke-width: 1.5;" x1="168" x2="168" y1="141.6357" y2="175.6045"/><text fill="#000000" font-family="sans-serif" font-size="12" lengthAdjust="spacingAndGlyphs" textLength="133" x="30" y="162.7744">Output Stream Buffer</text><rect fill="#F8F8F8" filter="url(#fy3vnejlsydep)" height="33.9688" rx="12.5" ry="12.5" style="stroke: #383838; stroke-width: 1.5;" width="52" x="228.5" y="195.6045"/><text fill="#000000" font-family="sans-serif" font-size="12" lengthAdjust="spacingAndGlyphs" textLength="32" x="238.5" y="216.7432">Send</text><rect fill="#F8F8F8" filter="url(#fy3vnejlsydep)" height="33.9688" rx="12.5" ry="12.5" style="stroke: #383838; stroke-width: 1.5;" width="70" x="219.5" y="249.5732"/><text fill="#000000" font-family="sans-serif" font-size="12" lengthAdjust="spacingAndGlyphs" textLength="50" x="229.5" y="270.7119">Framing</text><rect fill="#F8F8F8" filter="url(#fy3vnejlsydep)" height="33.9688" style="stroke: #383838; stroke-width: 1.5;" width="111" x="199" y="303.542"/><line style="stroke: #383838; stroke-width: 1.5;" x1="204" x2="204" y1="303.542" y2="337.5107"/><line style="stroke: #383838; stroke-width: 1.5;" x1="305" x2="305" y1="303.542" y2="337.5107"/><text fill="#000000" font-family="sans-serif" font-size="12" lengthAdjust="spacingAndGlyphs" textLength="91" x="209" y="324.6807">Framing Buffer</text><rect fill="#F8F8F8" filter="url(#fy3vnejlsydep)" height="33.9688" rx="12.5" ry="12.5" style="stroke: #383838; stroke-width: 1.5;" width="52" x="360" y="357.5107"/><text fill="#000000" font-family="sans-serif" font-size="12" lengthAdjust="spacingAndGlyphs" textLength="32" x="370" y="378.6494">Write</text><rect fill="#F8F8F8" filter="url(#fy3vnejlsydep)" height="33.9688" style="stroke: #383838; stroke-width: 1.5;" width="102" x="335" y="411.4795"/><line style="stroke: #383838; stroke-width: 1.5;" x1="340" x2="340" y1="411.4795" y2="445.4482"/><line style="stroke: #383838; stroke-width: 1.5;" x1="432" x2="432" y1="411.4795" y2="445.4482"/><text fill="#000000" font-family="sans-serif" font-size="12" lengthAdjust="spacingAndGlyphs" textLength="82" x="345" y="432.6182">Device Buffer</text><line style="stroke: #383838; stroke-width: 1.5;" x1="96.5" x2="96.5" y1="67.667" y2="87.667"/><polygon fill="#383838" points="92.5,77.667,96.5,87.667,100.5,77.667,96.5,81.667" style="stroke: #383838; stroke-width: 1.0;"/><line style="stroke: #383838; stroke-width: 1.5;" x1="96.5" x2="96.5" y1="121.6357" y2="141.6357"/><polygon fill="#383838" points="92.5,131.6357,96.5,141.6357,100.5,131.6357,96.5,135.6357" style="stroke: #383838; stroke-width: 1.0;"/><line style="stroke: #383838; stroke-width: 1.5;" x1="254.5" x2="254.5" y1="229.5732" y2="249.5732"/><polygon fill="#383838" points="250.5,239.5732,254.5,249.5732,258.5,239.5732,254.5,243.5732" style="stroke: #383838; stroke-width: 1.0;"/><line style="stroke: #383838; stroke-width: 1.5;" x1="254.5" x2="254.5" y1="283.542" y2="303.542"/><polygon fill="#383838" points="250.5,293.542,254.5,303.542,258.5,293.542,254.5,297.542" style="stroke: #383838; stroke-width: 1.0;"/><line style="stroke: #383838; stroke-width: 1.5;" x1="386" x2="386" y1="391.4795" y2="411.4795"/><polygon fill="#383838" points="382,401.4795,386,411.4795,390,401.4795,386,405.4795" style="stroke: #383838; stroke-width: 1.0;"/><line style="stroke: #383838; stroke-width: 1.5;" x1="96.5" x2="96.5" y1="175.6045" y2="180.6045"/><line style="stroke: #383838; stroke-width: 1.5;" x1="96.5" x2="254.5" y1="180.6045" y2="180.6045"/><line style="stroke: #383838; stroke-width: 1.5;" x1="254.5" x2="254.5" y1="180.6045" y2="195.6045"/><polygon fill="#383838" points="250.5,185.6045,254.5,195.6045,258.5,185.6045,254.5,189.6045" style="stroke: #383838; stroke-width: 1.0;"/><line style="stroke: #383838; stroke-width: 1.5;" x1="254.5" x2="254.5" y1="337.5107" y2="342.5107"/><line style="stroke: #383838; stroke-width: 1.5;" x1="254.5" x2="386" y1="342.5107" y2="342.5107"/><line style="stroke: #383838; stroke-width: 1.5;" x1="386" x2="386" y1="342.5107" y2="357.5107"/><polygon fill="#383838" points="382,347.5107,386,357.5107,390,347.5107,386,351.5107" style="stroke: #383838; stroke-width: 1.0;"/><text fill="#000000" font-family="sans-serif" font-size="18" lengthAdjust="spacingAndGlyphs" textLength="129" x="31.5" y="29.4531">XRCE Protocol</text><text fill="#000000" font-family="sans-serif" font-size="18" lengthAdjust="spacingAndGlyphs" textLength="142" x="183" y="29.4531">Serial Transport</text><text fill="#000000" font-family="sans-serif" font-size="18" lengthAdjust="spacingAndGlyphs" textLength="65" x="353" y="29.4531">System</text><line style="stroke: #000000; stroke-width: 2.0;" x1="10" x2="10" y1="12.7451" y2="445.4482"/><line style="stroke: #000000; stroke-width: 2.0;" x1="178" x2="178" y1="12.7451" y2="445.4482"/><line style="stroke: #000000; stroke-width: 2.0;" x1="330" x2="330" y1="12.7451" y2="445.4482"/><line style="stroke: #000000; stroke-width: 2.0;" x1="446" x2="446" y1="12.7451" y2="445.4482"/><!--
@startuml
skinparam roundcorner 20
skinparam monochrome true

|XRCE Protocol|
:Topic>
:Serialization;
:Output Stream Buffer|
|Serial Transport|
:Send;
:Framing;
:Framing Buffer|
|System|
:Write;
:Device Buffer|
@enduml

PlantUML version 1.2018.15beta2(Unknown compile time)
(GPL source distribution)
Java Runtime: Java(TM) SE Runtime Environment
JVM: Java HotSpot(TM) 64-Bit Server VM
Java Version: 1.7.0_25-b15
Operating System: Linux
Default Encoding: UTF-8
Language: en
Country: US
--></g></svg>